<svg width="261.7200073242187" height="67.66296029040224" viewBox="0 0 375 96.94944749664482"
    class="looka-1j8o68f">
    <defs id="SvgjsDefs1013"></defs>
    <g id="SvgjsG1014" featurekey="nYIUkx-0"
        transform="matrix(0.864006684661093,0,0,0.864006684661093,9.999973709856718,0.7076264606463702)"
        fill="#f4f7f7">
        <path xmlns="http://www.w3.org/2000/svg"
            d="M95.108,84.125c-0.484,0-0.955-0.252-1.216-0.701L65.849,34.79c-0.386-0.671-0.155-1.528,0.516-1.917  c0.673-0.386,1.527-0.156,1.916,0.515l28.043,48.634c0.386,0.67,0.156,1.527-0.515,1.916C95.587,84.064,95.346,84.125,95.108,84.125  z"></path>
        <path xmlns="http://www.w3.org/2000/svg"
            d="M76.938,84.125H1.403c-0.501,0-0.964-0.266-1.213-0.701c-0.252-0.433-0.252-0.967-0.003-1.401L47.011,0.716  c0.251-0.433,0.714-0.701,1.215-0.701h19.23c0.775,0,1.402,0.627,1.402,1.402c0,0.774-0.627,1.401-1.402,1.401H49.037L3.828,81.321  h73.11c0.774,0,1.401,0.627,1.401,1.401C78.339,83.498,77.712,84.125,76.938,84.125z"></path>
        <path xmlns="http://www.w3.org/2000/svg" d="M48.892,34.089"></path>
        <path xmlns="http://www.w3.org/2000/svg"
            d="M76.938,84.125H1.403c-0.775,0-1.402-0.627-1.402-1.402c0-0.774,0.627-1.401,1.402-1.401h73.109L56.766,50.554  c-0.386-0.67-0.156-1.527,0.515-1.916c0.671-0.386,1.528-0.156,1.917,0.515l18.956,32.87c0.249,0.435,0.249,0.969-0.003,1.401  C77.901,83.856,77.439,84.125,76.938,84.125z"></path>
        <path xmlns="http://www.w3.org/2000/svg"
            d="M28.707,100.001H10.76c-0.775,0-1.402-0.627-1.402-1.401c0-0.775,0.627-1.402,1.402-1.402h17.946  c0.774,0,1.401,0.627,1.401,1.402C30.108,99.374,29.481,100.001,28.707,100.001z"></path>
        <path xmlns="http://www.w3.org/2000/svg"
            d="M76.938,84.125H1.403c-0.501,0-0.964-0.269-1.213-0.701c-0.252-0.433-0.252-0.967-0.003-1.401l18.954-32.87  c0.389-0.671,1.24-0.901,1.917-0.515c0.671,0.389,0.901,1.246,0.515,1.916L3.828,81.321h73.11c0.774,0,1.401,0.627,1.401,1.401  C78.339,83.498,77.712,84.125,76.938,84.125z"></path>
        <path xmlns="http://www.w3.org/2000/svg"
            d="M104.236,100.001H28.707c-0.775,0-1.402-0.627-1.402-1.401c0-0.775,0.627-1.402,1.402-1.402h73.104L84.067,66.434  c-0.386-0.671-0.156-1.528,0.515-1.917c0.671-0.383,1.527-0.158,1.916,0.515l18.954,32.867c0.249,0.436,0.249,0.969-0.003,1.401  C105.2,99.732,104.737,100.001,104.236,100.001z"></path>
        <path xmlns="http://www.w3.org/2000/svg"
            d="M76.938,84.125H20.633c-0.775,0-1.402-0.627-1.402-1.402c0-0.774,0.627-1.401,1.402-1.401h56.305  c0.774,0,1.401,0.627,1.401,1.401C78.339,83.498,77.712,84.125,76.938,84.125z"></path>
        <path xmlns="http://www.w3.org/2000/svg"
            d="M67.432,67.644h-37.34c-0.501,0-0.964-0.266-1.213-0.701c-0.252-0.433-0.252-0.967-0.003-1.401l37.34-64.839  c0.386-0.671,1.24-0.901,1.917-0.515c0.67,0.386,0.9,1.243,0.515,1.917L32.517,64.84h34.915c0.774,0,1.401,0.627,1.401,1.401  C68.833,67.017,68.207,67.644,67.432,67.644z"></path>
        <path xmlns="http://www.w3.org/2000/svg"
            d="M67.432,67.644H48.544c-0.501,0-0.964-0.266-1.213-0.701c-0.252-0.433-0.252-0.967-0.003-1.401l18.519-32.155  c0.389-0.671,1.24-0.901,1.916-0.515c0.671,0.386,0.9,1.243,0.515,1.917L50.97,64.84h16.462c0.774,0,1.401,0.627,1.401,1.401  C68.833,67.017,68.207,67.644,67.432,67.644z"></path>
        <path xmlns="http://www.w3.org/2000/svg"
            d="M10.76,100.001c-0.479,0-0.947-0.246-1.208-0.69L0.195,83.435c-0.394-0.668-0.172-1.524,0.496-1.919  c0.665-0.392,1.525-0.173,1.919,0.495l9.358,15.877c0.394,0.668,0.172,1.527-0.496,1.919  C11.248,99.938,11.004,100.001,10.76,100.001z"></path>
        <path xmlns="http://www.w3.org/2000/svg"
            d="M104.236,100.001c-0.26,0-0.521-0.071-0.753-0.219c-0.651-0.416-0.846-1.281-0.43-1.936l9.645-15.159L67.457,4.223  L31.332,66.956c-0.392,0.671-1.243,0.896-1.917,0.515c-0.671-0.386-0.901-1.243-0.515-1.916l37.34-64.839  c0.504-0.865,1.928-0.865,2.432,0l46.881,81.307c0.261,0.451,0.247,1.013-0.032,1.453l-10.103,15.876  C105.15,99.771,104.699,100.001,104.236,100.001z"></path>
    </g>
    <g id="SvgjsG1015" featurekey="PXhRQw-0"
        transform="matrix(5.280946328563404,0,0,5.280946328563404,121.8314333360301,-24.045202288947284)"
        fill="#f4f7f7">
        <path
            d="M1.32 20 l-0.51996 -2.7 l3.12 0 c0.22666 0 0.34 -0.1 0.34 -0.3 l0 -2.64 c0 -0.2 -0.04 -0.32 -0.12 -0.36 s-0.22 -0.06 -0.42 -0.06 l-1.5 0 c-0.21334 0 -0.41668 -0.01666 -0.61002 -0.05 s-0.36668 -0.11 -0.52002 -0.23 s-0.27334 -0.28666 -0.36 -0.5 s-0.13 -0.5 -0.13 -0.86 l0 -4.92 c0 -0.57334 0.15666 -1.03 0.47 -1.37 s0.81 -0.51 1.49 -0.51 l4 0 l0.5 2.7 l-3.28 0 c-0.24 0 -0.36 0.10666 -0.36 0.32 l0 2.64 c0 0.14666 0.03666 0.24666 0.11 0.3 s0.18334 0.08 0.33 0.08 l1.82 0 c0.46666 0 0.82332 0.11 1.07 0.33 s0.37 0.60334 0.37 1.15 l0 4.78 c0 0.8 -0.16334 1.3667 -0.49 1.7 s-0.90332 0.5 -1.73 0.5 l-3.58 0 z M15.82 20 l-2.96 0 l0 -5.8 l-1.58 0 l0 5.8 l-2.96 0 l0 -14.5 l2.96 0 l0 6.2 l1.58 0 l0 -6.2 l2.96 0 l0 14.5 z M19.8 18.2 l-0.26 1.8 l-2.92 0 l2.62 -14.5 l3.1 0 l2.62 14.5 l-2.92 0 l-0.26 -1.8 l-1.98 0 z M20.12 15.9 l1.34 0 l-0.66 -5.14 z M29.800000000000004 20 l-3.06 0 l0 -3.68 l-2.78 -10.82 l3 0 l1.3 6.84 l1.32 -6.84 l3 0 l-2.78 10.82 l0 3.68 z M34.760000000000005 18.2 l-0.26 1.8 l-2.92 0 l2.62 -14.5 l3.1 0 l2.62 14.5 l-2.92 0 l-0.26 -1.8 l-1.98 0 z M35.080000000000005 15.9 l1.34 0 l-0.66 -5.14 z M40.720000000000006 5.5 l2.76 0 l1.48 5.82 l0 -5.82 l2.98 0 l0 14.5 l-2.98 0 l-1.56 -6.06 l0 6.06 l-2.68 0 l0 -14.5 z"></path>
    </g>
    <g id="SvgjsG1016" featurekey="mlRtrp-0"
        transform="matrix(0.3504976418315855,0,0,0.3504976418315855,149.2640601105381,89.81282443333737)"
        fill="#f4f7f7">
        <path
            d="M5.7227 9.443 l0 2.334 l8.7207 0 l0 2.8613 l-8.7207 0 l0 5.3613 l-3.623 0 l0 -13.418 l12.822 0 l0 2.8613 l-9.1992 0 z M36.5586375 20 l-3.623 0 l0 -13.418 l9.082 0 c0.97656 0 1.805 0.10091 2.4854 0.30273 s1.2337 0.48828 1.6602 0.85938 s0.73568 0.81868 0.92774 1.3428 s0.28809 1.1084 0.28809 1.7529 c0 0.56641 -0.079756 1.0612 -0.23926 1.4844 s-0.37435 0.78613 -0.64453 1.0889 s-0.58432 0.55827 -0.94239 0.7666 s-0.73568 0.38086 -1.1328 0.51758 l4.3945 5.3027 l-4.2383 0 l-4.0625 -4.9414 l-3.9551 0 l0 4.9414 z M43.7169375 10.8203 c0 -0.26042 -0.03418 -0.48174 -0.10254 -0.66403 s-0.18718 -0.33041 -0.35645 -0.44435 s-0.39551 -0.19694 -0.67871 -0.24902 s-0.6364 -0.078125 -1.0596 -0.078125 l-4.9609 0 l0 2.8711 l4.9609 0 c0.42317 0 0.77637 -0.026045 1.0596 -0.078125 s0.50944 -0.13509 0.67871 -0.24902 s0.28809 -0.26205 0.35645 -0.44435 s0.10254 -0.40365 0.10254 -0.66407 z M83.5958125 13.300799999999999 c0 1.1523 -0.21159 2.1696 -0.63477 3.0518 s-1.0286 1.6194 -1.8164 2.2119 s-1.7432 1.04 -2.8662 1.3428 s-2.3845 0.4541 -3.7842 0.4541 s-2.6644 -0.15137 -3.7939 -0.4541 s-2.0915 -0.75032 -2.8857 -1.3428 s-1.4063 -1.3298 -1.8359 -2.2119 s-0.64453 -1.8994 -0.64453 -3.0518 s0.21484 -2.1696 0.64453 -3.0518 s1.0417 -1.6194 1.8359 -2.2119 s1.7562 -1.04 2.8857 -1.3428 s2.3942 -0.4541 3.7939 -0.4541 s2.6611 0.15137 3.7842 0.4541 s2.0784 0.75032 2.8662 1.3428 s1.3933 1.3298 1.8164 2.2119 s0.63477 1.8994 0.63477 3.0518 z M79.9338125 13.300799999999999 c0 -0.5013 -0.079756 -1.001 -0.23926 -1.499 s-0.44271 -0.94563 -0.84961 -1.3428 s-0.96191 -0.7194 -1.665 -0.9668 s-1.5983 -0.37109 -2.6855 -0.37109 c-0.72917 0 -1.3704 0.056963 -1.9238 0.1709 s-1.0319 0.27182 -1.4355 0.47364 s-0.74219 0.43783 -1.0156 0.70802 s-0.49153 0.5599 -0.6543 0.86915 s-0.27832 0.63151 -0.34668 0.9668 s-0.10254 0.66568 -0.10254 0.99121 c0 0.33203 0.03418 0.66731 0.10254 1.0059 s0.18392 0.66244 0.34668 0.97169 s0.38086 0.59733 0.6543 0.86426 s0.61198 0.49967 1.0156 0.69823 s0.88216 0.35481 1.4355 0.46875 s1.1946 0.1709 1.9238 0.1709 c1.0872 0 1.9824 -0.1237 2.6855 -0.37109 s1.2581 -0.56966 1.665 -0.9668 s0.69011 -0.84473 0.84961 -1.3428 s0.23926 -0.99775 0.23926 -1.499 z M114.48984375 20 l-9.0527 -9.2188 l0 9.2188 l-3.623 0 l0 -13.418 l3.9355 0 l9.0625 9.2578 l0 -9.2578 l3.6035 0 l0 13.418 l-3.9258 0 z M145.05269375 9.502 l0 10.498 l-3.623 0 l0 -10.498 l-5.6934 0 l0 -2.9199 l15.02 0 l0 2.9199 l-5.7031 0 z M168.066396875 20 l0 -13.418 l13.584 0 l0 2.8613 l-9.8633 0 l0 2.2168 l9.3555 0 l0 2.8613 l-9.3555 0 l0 2.6172 l10 0 l0 2.8613 l-13.721 0 z M212.8765625 20 l-9.0527 -9.2188 l0 9.2188 l-3.623 0 l0 -13.418 l3.9355 0 l9.0625 9.2578 l0 -9.2578 l3.6035 0 l0 13.418 l-3.9258 0 z M252.3553125 13.2812 c0 0.85938 -0.094385 1.6228 -0.28318 2.29 s-0.4541 1.2483 -0.7959 1.7432 s-0.75195 0.91472 -1.2305 1.2598 s-1.0107 0.62174 -1.5967 0.83007 s-1.2175 0.3597 -1.8945 0.4541 s-1.3835 0.1416 -2.1191 0.1416 l-8.5156 0 l0 -13.418 l8.4961 0 c0.73567 0 1.4421 0.047197 2.1191 0.1416 s1.3103 0.24577 1.8994 0.4541 s1.1247 0.4834 1.6064 0.8252 s0.89355 0.76172 1.2354 1.2598 s0.6071 1.0791 0.7959 1.7432 s0.2832 1.4226 0.2832 2.2754 z M248.7033125 13.2812 c0 -0.64453 -0.083008 -1.2044 -0.24902 -1.6797 s-0.43294 -0.86752 -0.80078 -1.1768 s-0.84799 -0.54037 -1.4404 -0.69337 s-1.3151 -0.22949 -2.168 -0.22949 l-4.502 0 l0 7.5781 l4.502 0 c0.85286 0 1.5755 -0.076494 2.168 -0.22949 s1.0726 -0.38737 1.4404 -0.70313 s0.63477 -0.71126 0.80078 -1.1865 s0.24902 -1.0352 0.24902 -1.6797 z M309.447109375 13.2812 c0 0.85938 -0.094385 1.6228 -0.28318 2.29 s-0.4541 1.2483 -0.7959 1.7432 s-0.75195 0.91472 -1.2305 1.2598 s-1.0107 0.62174 -1.5967 0.83007 s-1.2175 0.3597 -1.8945 0.4541 s-1.3835 0.1416 -2.1191 0.1416 l-8.5156 0 l0 -13.418 l8.4961 0 c0.73567 0 1.4421 0.047197 2.1191 0.1416 s1.3103 0.24577 1.8994 0.4541 s1.1247 0.4834 1.6064 0.8252 s0.89355 0.76172 1.2354 1.2598 s0.6071 1.0791 0.7959 1.7432 s0.2832 1.4226 0.2832 2.2754 z M305.795109375 13.2812 c0 -0.64453 -0.083008 -1.2044 -0.24902 -1.6797 s-0.43294 -0.86752 -0.80078 -1.1768 s-0.84799 -0.54037 -1.4404 -0.69337 s-1.3151 -0.22949 -2.168 -0.22949 l-4.502 0 l0 7.5781 l4.502 0 c0.85286 0 1.5755 -0.076494 2.168 -0.22949 s1.0726 -0.38737 1.4404 -0.70313 s0.63477 -0.71126 0.80078 -1.1865 s0.24902 -1.0352 0.24902 -1.6797 z M327.66600625 20 l0 -13.418 l13.584 0 l0 2.8613 l-9.8633 0 l0 2.2168 l9.3555 0 l0 2.8613 l-9.3555 0 l0 2.6172 l10 0 l0 2.8613 l-13.721 0 z M368.805171875 20 l-4.2188 0 l-6.7871 -13.418 l4.043 0 l4.8828 10.098 l4.873 -10.098 l4.043 0 z M392.75585 20 l0 -13.418 l13.584 0 l0 2.8613 l-9.8633 0 l0 2.2168 l9.3555 0 l0 2.8613 l-9.3555 0 l0 2.6172 l10 0 l0 2.8613 l-13.721 0 z M424.890615625 20 l0 -13.418 l3.623 0 l0 10.479 l9.7949 0 l0 2.9395 l-13.418 0 z M473.49034375 13.300799999999999 c0 1.1523 -0.21159 2.1696 -0.63477 3.0518 s-1.0286 1.6194 -1.8164 2.2119 s-1.7432 1.04 -2.8662 1.3428 s-2.3845 0.4541 -3.7842 0.4541 s-2.6644 -0.15137 -3.7939 -0.4541 s-2.0915 -0.75032 -2.8857 -1.3428 s-1.4063 -1.3298 -1.8359 -2.2119 s-0.64453 -1.8994 -0.64453 -3.0518 s0.21484 -2.1696 0.64453 -3.0518 s1.0417 -1.6194 1.8359 -2.2119 s1.7562 -1.04 2.8857 -1.3428 s2.3942 -0.4541 3.7939 -0.4541 s2.6611 0.15137 3.7842 0.4541 s2.0784 0.75032 2.8662 1.3428 s1.3933 1.3298 1.8164 2.2119 s0.63477 1.8994 0.63477 3.0518 z M469.82834375 13.300799999999999 c0 -0.5013 -0.079756 -1.001 -0.23926 -1.499 s-0.44271 -0.94563 -0.84961 -1.3428 s-0.96191 -0.7194 -1.665 -0.9668 s-1.5983 -0.37109 -2.6855 -0.37109 c-0.72917 0 -1.3704 0.056963 -1.9238 0.1709 s-1.0319 0.27182 -1.4355 0.47364 s-0.74219 0.43783 -1.0156 0.70802 s-0.49153 0.5599 -0.6543 0.86915 s-0.27832 0.63151 -0.34668 0.9668 s-0.10254 0.66568 -0.10254 0.99121 c0 0.33203 0.03418 0.66731 0.10254 1.0059 s0.18392 0.66244 0.34668 0.97169 s0.38086 0.59733 0.6543 0.86426 s0.61198 0.49967 1.0156 0.69823 s0.88216 0.35481 1.4355 0.46875 s1.1946 0.1709 1.9238 0.1709 c1.0872 0 1.9824 -0.1237 2.6855 -0.37109 s1.2581 -0.56966 1.665 -0.9668 s0.69011 -0.84473 0.84961 -1.3428 s0.23926 -0.99775 0.23926 -1.499 z M506.787375 11.1621 c0 0.67058 -0.097656 1.2874 -0.29297 1.8506 s-0.50944 1.0481 -0.94238 1.4551 s-0.99443 0.72429 -1.6846 0.95215 s-1.53 0.3418 -2.5195 0.3418 l-6.0156 0 l0 4.2383 l-3.623 0 l0 -13.418 l9.6387 0 c0.98955 0 1.8294 0.1123 2.5195 0.33691 s1.2517 0.54036 1.6846 0.94727 s0.74707 0.8903 0.94238 1.4502 s0.29297 1.1751 0.29297 1.8457 z M503.125375 11.2207 c0 -0.3125 -0.043945 -0.58104 -0.13184 -0.80565 s-0.23274 -0.40853 -0.43457 -0.55176 s-0.4655 -0.24902 -0.79102 -0.31738 s-0.72591 -0.10254 -1.2012 -0.10254 l-5.2344 0 l0 3.457 l5.2344 0 c0.47526 0 0.87565 -0.027666 1.2012 -0.083008 s0.58919 -0.14975 0.79102 -0.28321 s0.34668 -0.30762 0.43457 -0.52246 s0.13184 -0.47852 0.13184 -0.79102 z M524.703115625 20 l0 -13.418 l13.584 0 l0 2.8613 l-9.8633 0 l0 2.2168 l9.3555 0 l0 2.8613 l-9.3555 0 l0 2.6172 l10 0 l0 2.8613 l-13.721 0 z M560.46098125 20 l-3.623 0 l0 -13.418 l9.082 0 c0.97656 0 1.805 0.10091 2.4854 0.30273 s1.2337 0.48828 1.6602 0.85938 s0.73568 0.81868 0.92774 1.3428 s0.28809 1.1084 0.28809 1.7529 c0 0.56641 -0.079756 1.0612 -0.23926 1.4844 s-0.37435 0.78613 -0.64453 1.0889 s-0.58432 0.55827 -0.94239 0.7666 s-0.73568 0.38086 -1.1328 0.51758 l4.3945 5.3027 l-4.2383 0 l-4.0625 -4.9414 l-3.9551 0 l0 4.9414 z M567.61928125 10.8203 c0 -0.26042 -0.03418 -0.48174 -0.10254 -0.66403 s-0.18718 -0.33041 -0.35645 -0.44435 s-0.39551 -0.19694 -0.67871 -0.24902 s-0.6364 -0.078125 -1.0596 -0.078125 l-4.9609 0 l0 2.8711 l4.9609 0 c0.42317 0 0.77637 -0.026045 1.0596 -0.078125 s0.50944 -0.13509 0.67871 -0.24902 s0.28809 -0.26205 0.35645 -0.44435 s0.10254 -0.40365 0.10254 -0.66407 z"></path>
    </g>
</svg>